<svg width="10" height="10" viewBox="0 0 10 10" fill="none" xmlns="http://www.w3.org/2000/svg">
<g clip-path="url(#clip0_201_3)">
<path d="M5.88778 4.99611L9.92725 0.956842C10.0142 0.86979 10.0142 0.728737 9.92725 0.641684L9.35115 0.0652632C9.30936 0.0235789 9.25251 0 9.19346 0C9.1343 0 9.07757 0.0235789 9.03578 0.0652632L4.99641 4.10463L0.957041 0.0652632C0.873357 -0.0184211 0.725251 -0.0183158 0.641778 0.0652632L0.0657777 0.641684C-0.0212749 0.728737 -0.0212749 0.86979 0.0657777 0.956842L4.10515 4.99611L0.0657777 9.03537C-0.0212749 9.12242 -0.0212749 9.26347 0.0657777 9.35053L0.641883 9.92695C0.683672 9.96863 0.740409 9.99221 0.799567 9.99221C0.858725 9.99221 0.915357 9.96863 0.957146 9.92695L4.99651 5.88758L9.03588 9.92695C9.07767 9.96863 9.13451 9.99221 9.19357 9.99221C9.25262 9.99221 9.30946 9.96863 9.35125 9.92695L9.92736 9.35053C10.0143 9.26347 10.0143 9.12242 9.92736 9.03537L5.88778 4.99611Z" fill="#F0FFFF" fill-opacity="0.4"/>
</g>
<defs>
<clipPath id="clip0_201_3">
<rect width="10" height="10" fill="white"/>
</clipPath>
</defs>
</svg>
